<svg width="24" height="24" viewBox="0 0 24 24" fill="none" xmlns="http://www.w3.org/2000/svg">
<path d="M11.1483 12.852H5.70234C5.46184 12.852 5.25975 12.7696 5.09609 12.605C4.93242 12.4405 4.85059 12.2374 4.85059 11.9957C4.85059 11.7542 4.93242 11.5526 5.09609 11.391C5.25975 11.2293 5.46184 11.1485 5.70234 11.1485H11.1483V5.70248C11.1483 5.46248 11.2307 5.25956 11.3953 5.09373C11.5598 4.92773 11.7629 4.84473 12.0046 4.84473C12.2461 4.84473 12.4477 4.92773 12.6093 5.09373C12.771 5.25956 12.8518 5.46248 12.8518 5.70248V11.1485H18.2978C18.5378 11.1485 18.7408 11.2308 18.9066 11.3955C19.0726 11.56 19.1556 11.7631 19.1556 12.0047C19.1556 12.2462 19.0726 12.4478 18.9066 12.6095C18.7408 12.7711 18.5378 12.852 18.2978 12.852H12.8518V18.298C12.8518 18.5385 12.7695 18.7406 12.6048 18.9042C12.4403 19.0679 12.2373 19.1497 11.9956 19.1497C11.7541 19.1497 11.5525 19.0679 11.3908 18.9042C11.2292 18.7406 11.1483 18.5385 11.1483 18.298V12.852Z" fill="#060B02"/>
</svg>
