<svg width="24" height="24" viewBox="0 0 24 24" fill="none" xmlns="http://www.w3.org/2000/svg">
<path d="M12.0372 21.0656C11.8086 21.0656 11.6204 20.9928 11.4727 20.8471C11.3251 20.7014 11.2512 20.5142 11.2512 20.2856V18.9536C10.4354 18.8162 9.74314 18.5279 9.17447 18.0886C8.6058 17.6494 8.16114 17.0945 7.84047 16.4238C7.74914 16.2245 7.75114 16.0158 7.84647 15.7978C7.9418 15.58 8.09939 15.4254 8.31922 15.3341C8.51455 15.2507 8.71505 15.2527 8.92072 15.3401C9.12622 15.4274 9.28897 15.5727 9.40897 15.7758C9.70497 16.3267 10.0906 16.7377 10.566 17.0091C11.0413 17.2804 11.5817 17.4161 12.1872 17.4161C12.9752 17.4161 13.6186 17.2231 14.1172 16.8371C14.6161 16.4511 14.8655 15.922 14.8655 15.2498C14.8655 14.5365 14.6353 13.9808 14.175 13.5828C13.7146 13.1847 12.8531 12.7812 11.5905 12.3726C10.3985 11.9972 9.50464 11.4859 8.90897 10.8386C8.3133 10.1914 8.01547 9.38683 8.01547 8.42483C8.01547 7.52017 8.3063 6.7525 8.88797 6.12183C9.46964 5.49117 10.2574 5.12425 11.2512 5.02108V3.71408C11.2512 3.48542 11.3251 3.29825 11.4727 3.15258C11.6204 3.00692 11.8086 2.93408 12.0372 2.93408C12.2659 2.93408 12.453 3.00692 12.5985 3.15258C12.7441 3.29825 12.817 3.48542 12.817 3.71408V5.02108C13.413 5.11241 13.9525 5.29975 14.4355 5.58308C14.9185 5.86642 15.3203 6.237 15.641 6.69483C15.7656 6.8775 15.7906 7.07367 15.716 7.28333C15.6413 7.49283 15.4941 7.64325 15.2742 7.73458C15.0829 7.82192 14.8812 7.83125 14.6692 7.76258C14.4572 7.69392 14.2706 7.56191 14.1095 7.36658C13.8801 7.08258 13.5976 6.87175 13.262 6.73408C12.9263 6.59642 12.5267 6.52758 12.0632 6.52758C11.3166 6.52758 10.7281 6.69358 10.298 7.02558C9.86797 7.35775 9.65297 7.81183 9.65297 8.38783C9.65297 8.99733 9.89097 9.49392 10.367 9.87758C10.8431 10.2612 11.7642 10.6634 13.1302 11.0841C14.2714 11.4421 15.1188 11.9542 15.6725 12.6206C16.2261 13.2867 16.503 14.1298 16.503 15.1498C16.503 16.2118 16.1916 17.0687 15.569 17.7203C14.9463 18.3718 14.029 18.7912 12.817 18.9786V20.2856C12.817 20.5142 12.7432 20.7014 12.5957 20.8471C12.4481 20.9928 12.2619 21.0656 12.0372 21.0656Z" fill="#060B02"/>
</svg>
