<svg width="24" height="24" viewBox="0 0 24 24" fill="none" xmlns="http://www.w3.org/2000/svg">
<path d="M2.70234 21.1497C2.45767 21.1497 2.25459 21.0689 2.09309 20.9072C1.93142 20.7457 1.85059 20.5426 1.85059 20.298C1.85059 20.0535 1.93142 19.8504 2.09309 19.6887C2.25459 19.5272 2.45767 19.4465 2.70234 19.4465H11.1483V7.42423C10.723 7.27023 10.3445 7.02639 10.0128 6.69273C9.68117 6.35889 9.43834 5.97931 9.28434 5.55398H5.48259L8.35509 12.4997C8.42959 12.6529 8.472 12.8145 8.48234 12.9845C8.49267 13.1545 8.48117 13.3224 8.44784 13.4882C8.29384 14.2542 7.89659 14.8317 7.25609 15.2207C6.61542 15.6096 5.93084 15.804 5.20234 15.804C4.47367 15.804 3.78809 15.6086 3.14559 15.2177C2.50292 14.8267 2.10659 14.2502 1.95659 13.4882C1.92325 13.3224 1.91075 13.1545 1.91909 12.9845C1.92742 12.8145 1.96892 12.6529 2.04359 12.4997L4.92184 5.55398H3.70234C3.45767 5.55398 3.25459 5.47323 3.09309 5.31173C2.93142 5.15006 2.85059 4.94698 2.85059 4.70248C2.85059 4.45781 2.93142 4.25373 3.09309 4.09023C3.25459 3.92656 3.45767 3.84473 3.70234 3.84473H9.28434C9.50034 3.25739 9.85392 2.77723 10.3451 2.40423C10.8364 2.03123 11.3881 1.84473 12.0001 1.84473C12.6121 1.84473 13.1638 2.03123 13.6551 2.40423C14.1463 2.77723 14.4998 3.25739 14.7158 3.84473H20.2978C20.5425 3.84473 20.7466 3.92656 20.9101 4.09023C21.0738 4.25373 21.1556 4.45781 21.1556 4.70248C21.1556 4.94698 21.0738 5.15006 20.9101 5.31173C20.7466 5.47323 20.5425 5.55398 20.2978 5.55398H19.0783L21.9566 12.4997C22.0313 12.6529 22.0728 12.8145 22.0811 12.9845C22.0894 13.1545 22.0769 13.3224 22.0436 13.4882C21.8936 14.2542 21.4973 14.8317 20.8546 15.2207C20.2121 15.6096 19.5265 15.804 18.7978 15.804C18.0732 15.804 17.3896 15.6086 16.7471 15.2177C16.1046 14.8267 15.7083 14.2502 15.5583 13.4882C15.521 13.3224 15.5075 13.1545 15.5178 12.9845C15.5282 12.8145 15.5706 12.6529 15.6451 12.4997L18.5176 5.55398H14.7158C14.5618 5.97931 14.319 6.35889 13.9873 6.69273C13.6557 7.02639 13.2772 7.27023 12.8518 7.42423V19.4465H21.2978C21.5425 19.4465 21.7466 19.5272 21.9101 19.6887C22.0738 19.8504 22.1556 20.0535 22.1556 20.298C22.1556 20.5426 22.0738 20.7457 21.9101 20.9072C21.7466 21.0689 21.5425 21.1497 21.2978 21.1497H2.70234ZM16.9946 12.8807H20.6071L18.7978 8.44198L16.9946 12.8807ZM3.39909 12.8807H7.01159L5.20234 8.44198L3.39909 12.8807ZM12.0001 5.91648C12.3421 5.91648 12.6299 5.79448 12.8636 5.55048C13.0974 5.30648 13.2143 5.02381 13.2143 4.70248C13.2143 4.36048 13.0974 4.07256 12.8636 3.83873C12.6299 3.60506 12.3421 3.48823 12.0001 3.48823C11.6748 3.48823 11.3911 3.60506 11.1491 3.83873C10.9069 4.07256 10.7858 4.36048 10.7858 4.70248C10.7858 5.02381 10.9069 5.30648 11.1491 5.55048C11.3911 5.79448 11.6748 5.91648 12.0001 5.91648Z" fill="#060B02"/>
</svg>
