<svg width="24" height="24" viewBox="0 0 24 24" fill="none" xmlns="http://www.w3.org/2000/svg">
<path d="M6.75009 22.1495C5.95492 22.1495 5.27292 21.8878 4.70409 21.3645C4.13509 20.8413 3.85059 20.1908 3.85059 19.413V5.36674C3.85059 4.70557 4.05084 4.11649 4.45134 3.59949C4.85184 3.08249 5.37409 2.75583 6.01809 2.61949L13.4431 1.07324C13.9734 0.957408 14.4478 1.07249 14.8663 1.41849C15.2848 1.76449 15.4941 2.20891 15.4941 2.75174V14.9017C15.4941 15.3027 15.3698 15.6589 15.1213 15.9702C14.8727 16.2814 14.5495 16.4827 14.1518 16.574L6.54384 18.2125C6.24884 18.2743 6.00317 18.4192 5.80684 18.6472C5.61034 18.8751 5.51209 19.131 5.51209 19.415C5.51209 19.7303 5.63592 19.988 5.88359 20.188C6.13125 20.388 6.42017 20.488 6.75034 20.488H18.4941V4.67824C18.4941 4.44458 18.5745 4.24724 18.7353 4.08624C18.8963 3.92508 19.0935 3.84449 19.3268 3.84449C19.5602 3.84449 19.7566 3.92508 19.9161 4.08624C20.0758 4.24724 20.1556 4.44458 20.1556 4.67824V20.4462C20.1556 20.9187 19.9893 21.3207 19.6566 21.6522C19.3239 21.9837 18.9205 22.1495 18.4463 22.1495H6.75009ZM8.67334 16.1267L13.8326 15.0115V2.69174L8.67334 3.75699V16.1267ZM7.01209 16.4822V4.11199L6.52059 4.21199C6.23159 4.27866 5.99125 4.41491 5.79959 4.62074C5.60792 4.82674 5.51209 5.07541 5.51209 5.36674V16.9565C5.66542 16.8658 5.82859 16.789 6.00159 16.726C6.17442 16.663 6.3545 16.6128 6.54184 16.5755L7.01209 16.4822Z" fill="#060B02"/>
</svg>
