<svg width="24" height="24" viewBox="0 0 24 24" fill="none" xmlns="http://www.w3.org/2000/svg">
<path d="M4.55384 8.24998H19.4463V5.05373H4.55384V8.24998ZM4.55384 22.1495C4.09384 22.1495 3.695 21.9806 3.35734 21.6427C3.0195 21.3051 2.85059 20.9062 2.85059 20.4462V5.05373C2.85059 4.59207 3.0195 4.19182 3.35734 3.85298C3.695 3.51398 4.09384 3.34448 4.55384 3.34448H6.12509V2.69823C6.12509 2.45906 6.2105 2.25698 6.38134 2.09198C6.552 1.92698 6.75975 1.84448 7.00459 1.84448C7.24942 1.84448 7.45184 1.92698 7.61184 2.09198C7.77184 2.25698 7.85184 2.45906 7.85184 2.69823V3.34448H16.1483V2.69823C16.1483 2.45906 16.2338 2.25698 16.4046 2.09198C16.5754 1.92698 16.7833 1.84448 17.0281 1.84448C17.2728 1.84448 17.4751 1.92698 17.6351 2.09198C17.7951 2.25698 17.8751 2.45906 17.8751 2.69823V3.34448H19.4463C19.908 3.34448 20.3083 3.51398 20.6471 3.85298C20.9861 4.19182 21.1556 4.59207 21.1556 5.05373V11.8592C21.1556 12.0996 21.0722 12.3016 20.9053 12.4652C20.7383 12.6289 20.5343 12.7107 20.2931 12.7107C20.0518 12.7107 19.8503 12.6289 19.6886 12.4652C19.5271 12.3016 19.4463 12.0996 19.4463 11.8592V9.74998H4.55384V20.4462H12.1801C12.4213 20.4462 12.6235 20.5285 12.7868 20.693C12.95 20.8575 13.0316 21.0606 13.0316 21.3022C13.0316 21.5439 12.95 21.7455 12.7868 21.907C12.6235 22.0687 12.4213 22.1495 12.1801 22.1495H4.55384ZM18.3588 23C17.0475 23 15.9322 22.5393 15.0128 21.618C14.0935 20.6965 13.6338 19.5821 13.6338 18.275C13.6338 16.9678 14.0935 15.8535 15.0128 14.932C15.9322 14.0107 17.0475 13.55 18.3588 13.55C19.666 13.55 20.7803 14.0107 21.7018 14.932C22.6232 15.8535 23.0838 16.9678 23.0838 18.275C23.0838 19.5821 22.6232 20.6965 21.7018 21.618C20.7803 22.5393 19.666 23 18.3588 23ZM18.6696 18.2105V15.896C18.6696 15.7533 18.6187 15.6332 18.5168 15.5355C18.415 15.438 18.2963 15.3892 18.1606 15.3892C18.0181 15.3892 17.8928 15.4396 17.7848 15.5405C17.6768 15.6415 17.6228 15.7593 17.6228 15.894V18.245C17.6228 18.355 17.6425 18.4592 17.6818 18.5577C17.7212 18.6564 17.7782 18.7511 17.8528 18.8417L19.4348 20.474C19.5388 20.578 19.6625 20.63 19.8058 20.63C19.9492 20.63 20.0728 20.5756 20.1768 20.467C20.2807 20.3585 20.3336 20.2339 20.3356 20.0932C20.3376 19.9524 20.2847 19.828 20.1768 19.72L18.6696 18.2105Z" fill="#060B02"/>
</svg>
