<svg width="24" height="24" viewBox="0 0 24 24" fill="none" xmlns="http://www.w3.org/2000/svg">
<path d="M3.55371 4.34448H20.4463C20.7697 4.34448 21.0439 4.45766 21.293 4.70679H21.2939C21.5429 4.95571 21.6552 5.23022 21.6553 5.55347V18.446C21.6553 18.7673 21.543 19.0408 21.2939 19.2888C21.0451 19.5369 20.7703 19.6492 20.4463 19.6492H3.55371C3.23199 19.6491 2.95881 19.5368 2.71094 19.2888L2.62402 19.1951C2.43636 18.9723 2.35059 18.7276 2.35059 18.446V5.55347C2.35065 5.22961 2.46292 4.95462 2.71094 4.70581H2.71191C2.95988 4.45694 3.23264 4.34451 3.55371 4.34448ZM3.05371 18.946H20.9463V10.9382H3.05371V18.946ZM3.05371 8.71265H20.9463V5.05347H3.05371V8.71265Z" fill="#060B02" stroke="#060B02"/>
</svg>
