<svg width="24" height="24" viewBox="0 0 24 24" fill="none" xmlns="http://www.w3.org/2000/svg">
<path d="M12.7142 8.83246V3.58246C12.7142 3.34212 12.796 3.14012 12.9597 2.97646C13.1234 2.81279 13.3254 2.73096 13.5657 2.73096H20.4175C20.6578 2.73096 20.8598 2.81279 21.0235 2.97646C21.1871 3.14012 21.269 3.34212 21.269 3.58246V8.83246C21.269 9.07296 21.1871 9.27504 21.0235 9.43871C20.8598 9.60237 20.6578 9.68421 20.4175 9.68421H13.5657C13.3254 9.68421 13.1234 9.60237 12.9597 9.43871C12.796 9.27504 12.7142 9.07296 12.7142 8.83246ZM2.73096 12.012V3.58246C2.73096 3.34212 2.81279 3.14012 2.97646 2.97646C3.14012 2.81279 3.34212 2.73096 3.58246 2.73096H10.4342C10.6745 2.73096 10.8765 2.81279 11.0402 2.97646C11.2039 3.14012 11.2857 3.34212 11.2857 3.58246V12.012C11.2857 12.2523 11.2039 12.4543 11.0402 12.618C10.8765 12.7816 10.6745 12.8635 10.4342 12.8635H3.58246C3.34212 12.8635 3.14012 12.7816 2.97646 12.618C2.81279 12.4543 2.73096 12.2523 2.73096 12.012ZM12.7142 20.3995V11.97C12.7142 11.7296 12.796 11.5276 12.9597 11.364C13.1234 11.2003 13.3254 11.1185 13.5657 11.1185H20.4175C20.6578 11.1185 20.8598 11.2003 21.0235 11.364C21.1871 11.5276 21.269 11.7296 21.269 11.97V20.3995C21.269 20.6438 21.1871 20.8478 21.0235 21.0115C20.8598 21.1751 20.6578 21.257 20.4175 21.257H13.5657C13.3254 21.257 13.1234 21.1751 12.9597 21.0115C12.796 20.8478 12.7142 20.6438 12.7142 20.3995ZM2.73096 20.3995V15.1495C2.73096 14.909 2.81279 14.7069 2.97646 14.5432C3.14012 14.3795 3.34212 14.2977 3.58246 14.2977H10.4342C10.6745 14.2977 10.8765 14.3795 11.0402 14.5432C11.2039 14.7069 11.2857 14.909 11.2857 15.1495V20.3995C11.2857 20.6438 11.2039 20.8478 11.0402 21.0115C10.8765 21.1751 10.6745 21.257 10.4342 21.257H3.58246C3.34212 21.257 3.14012 21.1751 2.97646 21.0115C2.81279 20.8478 2.73096 20.6438 2.73096 20.3995ZM4.44021 11.1602H9.58246V4.43421H4.44021V11.1602ZM14.4232 19.5477H19.5657V12.8277H14.4232V19.5477ZM14.4232 7.98096H19.5657V4.43421H14.4232V7.98096ZM4.44021 19.5477H9.58246V16.007H4.44021V19.5477Z" fill="#060B02"/>
</svg>
