<svg width="24" height="24" viewBox="0 0 24 24" fill="none" xmlns="http://www.w3.org/2000/svg">
<path d="M4.55384 21.1495C4.09417 21.1495 3.69534 20.9806 3.35734 20.6427C3.0195 20.3047 2.85059 19.9059 2.85059 19.4462V4.55373C2.85059 4.09407 3.0195 3.69423 3.35734 3.35423C3.69534 3.0144 4.09417 2.84448 4.55384 2.84448H19.4463C19.906 2.84448 20.3058 3.0144 20.6458 3.35423C20.9857 3.69423 21.1556 4.09407 21.1556 4.55373V19.4462C21.1556 19.9059 20.9857 20.3047 20.6458 20.6427C20.3058 20.9806 19.906 21.1495 19.4463 21.1495H4.55384ZM4.50009 4.49998V19.5H19.5001V4.49998H16.9001V10.5787C16.9001 10.7552 16.8286 10.8843 16.6856 10.966C16.5428 11.0476 16.3967 11.0429 16.2473 10.9517L14.8728 10.1292C14.7277 10.0381 14.5868 9.99248 14.4501 9.99248C14.3134 9.99248 14.1725 10.0381 14.0273 10.1292L12.6588 10.9517C12.5055 11.0429 12.3574 11.0476 12.2146 10.966C12.0716 10.8843 12.0001 10.7552 12.0001 10.5787V4.49998H4.50009Z" fill="#060B02"/>
</svg>
