<svg width="24" height="24" viewBox="0 0 24 24" fill="none" xmlns="http://www.w3.org/2000/svg">
<path d="M1.8623 19.4998V4.63733C1.8623 4.169 2.02914 3.76808 2.3628 3.43458C2.6963 3.10092 3.09722 2.93408 3.56555 2.93408H10.1841C10.6524 2.93408 11.0533 3.10092 11.3868 3.43458C11.7205 3.76808 11.8873 4.169 11.8873 4.63733V7.05908H20.4341C20.9024 7.05908 21.3033 7.22592 21.6368 7.55958C21.9705 7.89308 22.1373 8.294 22.1373 8.76233V19.4998C22.1373 19.9723 21.9705 20.3743 21.6368 20.7058C21.3033 21.0373 20.9024 21.2031 20.4341 21.2031H3.56555C3.09722 21.2031 2.6963 21.0373 2.3628 20.7058C2.02914 20.3743 1.8623 19.9723 1.8623 19.4998ZM3.4998 19.5656H6.1248V16.9406H3.4998V19.5656ZM3.4998 15.4406H6.1248V12.8156H3.4998V15.4406ZM3.4998 11.3156H6.1248V8.69058H3.4998V11.3156ZM3.4998 7.19058H6.1248V4.56558H3.4998V7.19058ZM7.6248 19.5656H10.2498V16.9406H7.6248V19.5656ZM7.6248 15.4406H10.2498V12.8156H7.6248V15.4406ZM7.6248 11.3156H10.2498V8.69058H7.6248V11.3156ZM7.6248 7.19058H10.2498V4.56558H7.6248V7.19058ZM11.7498 19.5656H20.4998V8.69058H11.7498V11.3156H13.7498V12.8156H11.7498V15.4406H13.7498V16.9406H11.7498V19.5656ZM16.3748 12.8156V11.3156H17.8748V12.8156H16.3748ZM16.3748 16.9406V15.4406H17.8748V16.9406H16.3748Z" fill="#060B02"/>
</svg>
