<svg width="24" height="24" viewBox="0 0 24 24" fill="none" xmlns="http://www.w3.org/2000/svg">
<path d="M6.26809 18.4462H10.7918C10.98 18.4462 11.1451 18.3741 11.2871 18.2297C11.4291 18.0854 11.5001 17.9195 11.5001 17.732V14.7082C11.5001 14.5201 11.4279 14.355 11.2836 14.213C11.1393 14.071 10.9733 14 10.7858 14H6.26209C6.07392 14 5.90884 14.0721 5.76684 14.2165C5.62484 14.3608 5.55384 14.5267 5.55384 14.7142V17.738C5.55384 17.9261 5.626 18.0912 5.77034 18.2332C5.91467 18.3752 6.08059 18.4462 6.26809 18.4462ZM6.26809 13H10.7918C10.98 13 11.1451 12.9278 11.2871 12.7835C11.4291 12.6391 11.5001 12.4732 11.5001 12.2857V6.26198C11.5001 6.07381 11.4279 5.90873 11.2836 5.76673C11.1393 5.62473 10.9733 5.55373 10.7858 5.55373H6.26209C6.07392 5.55373 5.90884 5.6259 5.76684 5.77023C5.62484 5.91457 5.55384 6.08048 5.55384 6.26798V12.2917C5.55384 12.4799 5.626 12.645 5.77034 12.787C5.91467 12.929 6.08059 13 6.26809 13ZM13.2143 18.4462H17.7321C17.9203 18.4462 18.0853 18.3741 18.2273 18.2297C18.3693 18.0854 18.4403 17.9195 18.4403 17.732V11.7082C18.4403 11.5201 18.3682 11.355 18.2238 11.213C18.0795 11.071 17.9136 11 17.7261 11H13.2083C13.0202 11 12.8551 11.0721 12.7131 11.2165C12.5711 11.3608 12.5001 11.5267 12.5001 11.7142V17.738C12.5001 17.9261 12.5723 18.0912 12.7166 18.2332C12.8609 18.3752 13.0268 18.4462 13.2143 18.4462ZM13.2143 9.99998H17.7321C17.9203 9.99998 18.0853 9.92782 18.2273 9.78348C18.3693 9.63915 18.4403 9.47323 18.4403 9.28573V6.26198C18.4403 6.07381 18.3682 5.90873 18.2238 5.76673C18.0795 5.62473 17.9136 5.55373 17.7261 5.55373H13.2083C13.0202 5.55373 12.8551 5.6259 12.7131 5.77023C12.5711 5.91457 12.5001 6.08048 12.5001 6.26798V9.29173C12.5001 9.4799 12.5723 9.64498 12.7166 9.78698C12.8609 9.92898 13.0268 9.99998 13.2143 9.99998ZM4.55384 21.1495C4.09384 21.1495 3.695 20.9806 3.35734 20.6427C3.0195 20.3051 2.85059 19.9062 2.85059 19.4462V4.55373C2.85059 4.09207 3.0195 3.69181 3.35734 3.35298C3.695 3.01398 4.09384 2.84448 4.55384 2.84448H19.4403C19.902 2.84448 20.3023 3.01398 20.6411 3.35298C20.9801 3.69181 21.1496 4.09207 21.1496 4.55373V5.99998H21.9331C22.1593 5.99998 22.3462 6.07365 22.4938 6.22098C22.6415 6.36832 22.7153 6.5544 22.7153 6.77923C22.7153 7.00423 22.6413 7.19157 22.4933 7.34123C22.3453 7.4909 22.1583 7.56573 21.9323 7.56573H21.1496V11.2142H21.9288C22.1538 11.2142 22.3412 11.2876 22.4908 11.4345C22.6405 11.5813 22.7153 11.7698 22.7153 12C22.7153 12.2301 22.6419 12.4186 22.4951 12.5655C22.3483 12.7123 22.1597 12.7857 21.9293 12.7857H21.1496V16.4342H21.9323C22.1583 16.4342 22.3453 16.5079 22.4933 16.6552C22.6413 16.8024 22.7153 16.9885 22.7153 17.2135C22.7153 17.4385 22.6413 17.6258 22.4933 17.7755C22.3453 17.9251 22.1583 18 21.9323 18H21.1496V19.4462C21.1496 19.9062 20.9801 20.3051 20.6411 20.6427C20.3023 20.9806 19.902 21.1495 19.4403 21.1495H4.55384ZM4.55384 19.4462H19.4403V4.55373H4.55384V19.4462Z" fill="#060B02"/>
</svg>
