<svg width="24" height="24" viewBox="0 0 24 24" fill="none" xmlns="http://www.w3.org/2000/svg">
<path d="M7.91418 12.0571V7.22008C7.91418 6.89508 8.02668 6.62033 8.25168 6.39583C8.47685 6.17149 8.75251 6.05933 9.07868 6.05933C9.40485 6.05933 9.67926 6.17149 9.90193 6.39583C10.1244 6.62033 10.2357 6.89508 10.2357 7.22008V12.0571C10.2357 12.3822 10.1232 12.657 9.89818 12.8813C9.67301 13.1058 9.39735 13.2181 9.07118 13.2181C8.74501 13.2181 8.4706 13.1058 8.24793 12.8813C8.02543 12.657 7.91418 12.3822 7.91418 12.0571ZM12.7999 13.0143V3.08933C12.7999 2.76849 12.913 2.49574 13.1392 2.27108C13.3653 2.04658 13.64 1.93433 13.9632 1.93433C14.2862 1.93433 14.559 2.04658 14.7817 2.27108C15.0043 2.49574 15.1157 2.76849 15.1157 3.08933V13.0143C15.1157 13.3972 14.9981 13.6863 14.7629 13.8818C14.5276 14.0773 14.2623 14.1751 13.9669 14.1751C13.6716 14.1751 13.4033 14.0773 13.1619 13.8818C12.9206 13.6863 12.7999 13.3972 12.7999 13.0143ZM3.03418 15.5858V11.3651C3.03418 11.0439 3.14726 10.771 3.37343 10.5463C3.5996 10.3217 3.87426 10.2093 4.19743 10.2093C4.52043 10.2093 4.79326 10.3217 5.01593 10.5466C5.2386 10.7714 5.34993 11.0445 5.34993 11.3658V15.5888C5.34993 15.9698 5.2316 16.2581 4.99493 16.4536C4.7581 16.6491 4.49251 16.7468 4.19818 16.7468C3.90385 16.7468 3.63626 16.6491 3.39543 16.4536C3.1546 16.2581 3.03418 15.9688 3.03418 15.5858ZM4.80918 21.1098C4.45451 21.1098 4.20868 20.9396 4.07168 20.5991C3.93468 20.2584 3.99485 19.9595 4.25218 19.7023L8.57218 15.3761C8.72551 15.2229 8.9151 15.1422 9.14093 15.1338C9.36693 15.1255 9.56685 15.1959 9.74068 15.3451L12.8689 18.1043L19.4667 11.5066H18.1124C17.8796 11.5066 17.6844 11.4273 17.5269 11.2688C17.3694 11.1103 17.2907 10.9142 17.2907 10.6806C17.2907 10.4469 17.3695 10.2532 17.5272 10.0996C17.6848 9.94591 17.8799 9.86908 18.1124 9.86908H21.4232C21.6637 9.86908 21.8658 9.95091 22.0294 10.1146C22.1931 10.2782 22.2749 10.4803 22.2749 10.7208V14.0066C22.2749 14.2377 22.196 14.4315 22.0382 14.5878C21.8805 14.7442 21.6851 14.8223 21.4519 14.8223C21.2186 14.8223 21.0245 14.7442 20.8697 14.5878C20.7148 14.4315 20.6374 14.2377 20.6374 14.0066V12.6523L13.4907 19.7991C13.3335 19.9562 13.141 20.038 12.9132 20.0443C12.6853 20.0507 12.4863 19.9772 12.3162 19.8241L9.19993 17.0778L5.41668 20.8668C5.32935 20.9582 5.23351 21.0215 5.12918 21.0568C5.02485 21.0922 4.91818 21.1098 4.80918 21.1098Z" fill="#060B02"/>
</svg>
