<svg width="24" height="24" viewBox="0 0 24 24" fill="none" xmlns="http://www.w3.org/2000/svg">
<path d="M3.55384 20.1497C3.09384 20.1497 2.695 19.9766 2.35734 19.6305C2.0195 19.2845 1.85059 18.8898 1.85059 18.4465V5.55398C1.85059 5.10898 2.0195 4.71289 2.35734 4.36573C2.695 4.01839 3.09384 3.84473 3.55384 3.84473H9.75059C9.98292 3.84473 10.2058 3.89239 10.4191 3.98773C10.6326 4.08306 10.8167 4.20806 10.9713 4.36273L12.0278 5.41648H20.4463C20.8913 5.41648 21.2874 5.58956 21.6346 5.93573C21.9819 6.28173 22.1556 6.67639 22.1556 7.11973V18.4465C22.1556 18.8898 21.9819 19.2845 21.6346 19.6305C21.2874 19.9766 20.8913 20.1497 20.4463 20.1497H3.55384ZM3.55384 18.4465H20.4463V7.11973H11.3163L9.75059 5.55398H3.55384V18.4465Z" fill="#060B02"/>
</svg>
