<svg width="24" height="24" viewBox="0 0 24 24" fill="none" xmlns="http://www.w3.org/2000/svg">
<path d="M0.8125 17.7156C0.8125 17.1031 0.969833 16.5488 1.2845 16.0528C1.59933 15.5566 2.03658 15.1837 2.59625 14.9341C3.82092 14.4007 4.92667 14.0154 5.9135 13.7781C6.90033 13.5407 7.9165 13.4221 8.962 13.4221C10.0152 13.4221 11.0301 13.5397 12.0068 13.7751C12.9834 14.0104 14.0841 14.3967 15.3087 14.9341C15.8672 15.1787 16.3083 15.5492 16.632 16.0456C16.9557 16.5419 17.1175 17.0986 17.1175 17.7156V18.5238C17.1175 18.992 16.9511 19.3929 16.6182 19.7266C16.2856 20.0602 15.8823 20.2271 15.4083 20.2271H2.51575C2.04742 20.2271 1.6465 20.0602 1.313 19.7266C0.979333 19.3929 0.8125 18.992 0.8125 18.5238V17.7156ZM21.4843 20.2271H18.1718C18.2869 19.9491 18.39 19.6723 18.481 19.3968C18.572 19.1213 18.6175 18.8303 18.6175 18.5238V17.7516C18.6175 16.6816 18.3758 15.8068 17.8925 15.1273C17.4092 14.4478 16.6623 13.8754 15.6518 13.4101C16.7818 13.5474 17.8581 13.7367 18.8808 13.9781C19.9034 14.2194 20.7314 14.5047 21.3648 14.8341C21.9266 15.1507 22.3708 15.558 22.6975 16.0558C23.0242 16.5535 23.1875 17.1167 23.1875 17.7456V18.5238C23.1875 18.992 23.0207 19.3929 22.687 19.7266C22.3535 20.0602 21.9526 20.2271 21.4843 20.2271ZM8.9635 11.8971C7.8385 11.8971 6.92008 11.5411 6.20825 10.8291C5.49625 10.1172 5.14025 9.19831 5.14025 8.07231C5.14025 6.94648 5.49633 6.02756 6.2085 5.31556C6.9205 4.60356 7.83842 4.24756 8.96225 4.24756C10.0859 4.24756 11.0048 4.60364 11.7188 5.31581C12.4327 6.02781 12.7898 6.94564 12.7898 8.06931C12.7898 9.19731 12.4333 10.1172 11.7203 10.8291C11.0072 11.5411 10.0883 11.8971 8.9635 11.8971ZM18.1833 8.06931C18.1833 9.19331 17.8263 10.1122 17.1125 10.8261C16.3988 11.5401 15.4793 11.8971 14.354 11.8971C14.1665 11.8971 13.9625 11.8836 13.742 11.8566C13.5217 11.8296 13.3138 11.7807 13.1185 11.7101C13.5265 11.2854 13.8347 10.7642 14.043 10.1466C14.2513 9.52889 14.3555 8.83781 14.3555 8.07331C14.3555 7.30881 14.251 6.63306 14.042 6.04606C13.833 5.45923 13.5252 4.92181 13.1185 4.43381C13.3058 4.38031 13.5115 4.33589 13.7355 4.30056C13.9593 4.26523 14.1655 4.24756 14.354 4.24756C15.4778 4.24756 16.397 4.60464 17.1115 5.31881C17.826 6.03281 18.1833 6.94964 18.1833 8.06931ZM2.51575 18.5238H15.4083V17.7396C15.4083 17.4754 15.3291 17.2194 15.1708 16.9716C15.0124 16.7236 14.8166 16.5502 14.5833 16.4516C13.3991 15.9301 12.4047 15.5796 11.6 15.4003C10.7953 15.221 9.916 15.1313 8.962 15.1313C8.016 15.1313 7.1335 15.221 6.3145 15.4003C5.49533 15.5796 4.49575 15.9301 3.31575 16.4516C3.08642 16.5497 2.89575 16.7228 2.74375 16.9708C2.59175 17.219 2.51575 17.4752 2.51575 17.7396V18.5238ZM8.961 10.2596C9.59433 10.2596 10.1178 10.0533 10.5315 9.64081C10.9453 9.22814 11.1523 8.70556 11.1523 8.07306C11.1523 7.44056 10.9459 6.91781 10.5332 6.50481C10.1207 6.09164 9.59825 5.88506 8.96575 5.88506C8.33308 5.88506 7.81025 6.09106 7.39725 6.50306C6.98425 6.91506 6.77775 7.43681 6.77775 8.06831C6.77775 8.70164 6.98367 9.22523 7.3955 9.63906C7.8075 10.0527 8.32933 10.2596 8.961 10.2596Z" fill="#060B02"/>
</svg>
