<svg width="24" height="24" viewBox="0 0 24 24" fill="none" xmlns="http://www.w3.org/2000/svg">
<path d="M6.48586 20.1497C6.0547 20.1497 5.68553 19.997 5.37836 19.6917C5.07103 19.3864 4.91736 19.0171 4.91736 18.5839V10.4094L2.53461 12.2089C2.34328 12.3621 2.13703 12.4232 1.91586 12.3922C1.6947 12.3614 1.50945 12.2506 1.36011 12.0599C1.21095 11.8773 1.15503 11.671 1.19236 11.4412C1.22953 11.2114 1.34145 11.0218 1.52811 10.8724L10.9744 3.64644C11.1275 3.53044 11.2919 3.43927 11.4676 3.37294C11.6431 3.3066 11.8205 3.27344 11.9999 3.27344C12.1792 3.27344 12.3566 3.3066 12.5321 3.37294C12.7078 3.43927 12.8722 3.53044 13.0254 3.64644L16.3541 6.17894V5.13069C16.3541 4.77352 16.4819 4.46986 16.7376 4.21969C16.9931 3.96969 17.3189 3.84469 17.7149 3.84469C18.0907 3.84469 18.4084 3.97669 18.6681 4.24069C18.9276 4.50469 19.0574 4.82527 19.0574 5.20244V8.24044L22.4836 10.8724C22.6701 11.0218 22.7759 11.2114 22.8009 11.4412C22.8259 11.671 22.7658 11.8783 22.6206 12.0629C22.4713 12.2516 22.285 12.3614 22.0619 12.3922C21.8387 12.4232 21.6334 12.3621 21.4461 12.2089L19.0574 10.3784V18.5839C19.0574 19.0171 18.9045 19.3864 18.5989 19.6917C18.293 19.997 17.9254 20.1497 17.4961 20.1497H14.7286C14.2976 20.1497 13.9284 19.997 13.6211 19.6917C13.3138 19.3864 13.1601 19.0171 13.1601 18.5839V14.1677H10.8396V18.5839C10.8396 19.0171 10.6867 19.3864 10.3809 19.6917C10.075 19.997 9.70745 20.1497 9.27811 20.1497H6.48586ZM6.62661 18.4464H9.17811V14.0719C9.17811 13.6444 9.33145 13.2766 9.63811 12.9684C9.94478 12.6603 10.3134 12.5062 10.7439 12.5062H13.2619C13.6907 12.5062 14.0579 12.6603 14.3634 12.9684C14.6689 13.2766 14.8216 13.6444 14.8216 14.0719V18.4464H17.3541V9.09194L11.9999 4.97094L6.62661 9.09194V18.4464ZM9.83911 9.93544H14.1606C14.1606 9.3696 13.9454 8.90152 13.5151 8.53119C13.0848 8.16085 12.5799 7.97569 12.0006 7.97569C11.4214 7.97569 10.9164 8.15952 10.4854 8.52719C10.0545 8.89485 9.83911 9.36427 9.83911 9.93544ZM9.17811 14.0719C9.17811 13.6444 9.33161 13.2766 9.63861 12.9684C9.94578 12.6603 10.3149 12.5062 10.7461 12.5062H13.2619H10.7439C10.3134 12.5062 9.94478 12.6603 9.63811 12.9684C9.33145 13.2766 9.17811 13.6444 9.17811 14.0719Z" fill="#060B02"/>
</svg>
