<svg width="97" height="81" viewBox="0 0 97 81" fill="none" xmlns="http://www.w3.org/2000/svg">
<line x1="22" y1="79.5" x2="35" y2="79.5" stroke="#A94D4D"/>
<line x1="42" y1="79.5" x2="55" y2="79.5" stroke="#A94D4D"/>
<path d="M62 79.5C62 79.5 70.4257 79.5 74 79.5" stroke="#A94D4D"/>
<line x1="23" y1="0.5" x2="75" y2="0.499995" stroke="#A94D4D"/>
<line x1="29" y1="12.5" x2="36" y2="12.5" stroke="#A94D4D"/>
<line x1="48" y1="12.5" x2="55" y2="12.5" stroke="#A94D4D"/>
<line x1="23.4385" y1="0.240157" x2="0.438547" y2="42.2402" stroke="#A94D4D"/>
<line x1="29.4287" y1="12.2572" x2="11.4287" y2="42.2572" stroke="#A94D4D"/>
<line x1="55.4412" y1="12.2353" x2="39.4412" y2="42.2353" stroke="#A94D4D"/>
<line x1="77.4384" y1="11.2404" x2="60.4384" y2="42.2404" stroke="#A94D4D"/>
<line x1="77.4371" y1="34.2428" x2="67.4371" y2="52.2428" stroke="#A94D4D"/>
<line x1="75.4296" y1="0.255742" x2="50.4296" y2="42.2557" stroke="#A94D4D"/>
<path d="M96.8605 41.5093C96.5739 41.339 96.2874 41.1688 96.0008 40.9985C95.6283 41.6255 95.2433 42.2736 94.8631 42.9138C87.9651 54.5429 81.0565 66.1455 74.2534 77.7916C73.8521 78.4929 73.4991 79.0692 73.1193 79.8065C73.4267 79.9355 73.7341 80.0645 74.0415 80.1935C74.3181 79.668 74.7332 78.9616 75.1186 78.293C81.914 66.66 88.8262 55.0513 95.7229 43.4244C96.1031 42.7843 96.488 42.1361 96.8605 41.5093Z" fill="#A94D4D"/>
<line x1="82.4331" y1="42.2499" x2="67.4331" y2="68.2499" stroke="#A94D4D"/>
<line x1="36.435" y1="12.2465" x2="19.435" y2="42.2465" stroke="#A94D4D"/>
<line x1="48.4412" y1="12.2353" x2="32.4412" y2="42.2353" stroke="#A94D4D"/>
<line x1="11.4227" y1="41.733" x2="35.4227" y2="79.733" stroke="#A94D4D"/>
<line x1="0.432713" y1="41.7495" x2="22.4327" y2="79.7495" stroke="#A94D4D"/>
<line x1="19.4278" y1="41.7411" x2="42.4277" y2="79.7411" stroke="#A94D4D"/>
<line x1="32.4278" y1="41.7411" x2="55.4277" y2="79.7411" stroke="#A94D4D"/>
<line x1="39.4278" y1="41.7411" x2="62.4277" y2="79.7411" stroke="#A94D4D"/>
<line x1="77.4224" y1="11.7325" x2="96.4224" y2="41.7325" stroke="#A94D4D"/>
<line x1="60.4218" y1="41.7316" x2="67.4218" y2="52.7316" stroke="#A94D4D"/>
<line x1="77.424" y1="34.735" x2="82.424" y2="42.735" stroke="#A94D4D"/>
<line x1="50.4185" y1="41.7264" x2="67.4185" y2="67.7264" stroke="#A94D4D"/>
</svg>
