<svg width="98" height="81" viewBox="0 0 98 81" fill="none" xmlns="http://www.w3.org/2000/svg">
<path d="M23.75 1L1.25 42.5L22.75 80H35.25L11.75 42.5L29.25 13H36.75L20.25 42.5L42.75 80H55.25L32.25 42.5L48.25 12.5H56.25L39.75 42.5L62.25 79.5L74.25 80L96.75 42L77.75 11.5L60.75 42.5L67.25 52.5L77.75 35.5L82.25 42.5L67.75 68.5L50.75 42.5L75.25 1H23.75Z" fill="#A94D4D"/>
<line x1="22.25" y1="79.5" x2="35.25" y2="79.5" stroke="#A94D4D"/>
<line x1="42.25" y1="79.5" x2="55.25" y2="79.5" stroke="#A94D4D"/>
<path d="M62.25 79.5C62.25 79.5 70.6757 79.5 74.25 79.5" stroke="#A94D4D"/>
<line x1="23.25" y1="0.5" x2="75.25" y2="0.499995" stroke="#A94D4D"/>
<line x1="29.25" y1="12.5" x2="36.25" y2="12.5" stroke="#A94D4D"/>
<line x1="48.25" y1="12.5" x2="55.25" y2="12.5" stroke="#A94D4D"/>
<line x1="23.6885" y1="0.240157" x2="0.688547" y2="42.2402" stroke="#A94D4D"/>
<line x1="29.6787" y1="12.2572" x2="11.6787" y2="42.2572" stroke="#A94D4D"/>
<line x1="55.6912" y1="12.2353" x2="39.6912" y2="42.2353" stroke="#A94D4D"/>
<line x1="77.6884" y1="11.2404" x2="60.6884" y2="42.2404" stroke="#A94D4D"/>
<line x1="77.6871" y1="34.2428" x2="67.6871" y2="52.2428" stroke="#A94D4D"/>
<line x1="75.6796" y1="0.255742" x2="50.6796" y2="42.2557" stroke="#A94D4D"/>
<path d="M97.1105 41.5093C96.8239 41.339 96.5374 41.1688 96.2508 40.9985C95.8783 41.6255 95.4933 42.2736 95.1131 42.9138C88.2151 54.5429 81.3065 66.1455 74.5034 77.7916C74.1021 78.4929 73.7491 79.0692 73.3693 79.8065C73.6767 79.9355 73.9841 80.0645 74.2915 80.1935C74.5681 79.668 74.9832 78.9616 75.3686 78.293C82.164 66.66 89.0762 55.0513 95.9729 43.4244C96.3531 42.7843 96.738 42.1361 97.1105 41.5093Z" fill="#A94D4D"/>
<line x1="82.6831" y1="42.2499" x2="67.6831" y2="68.2499" stroke="#A94D4D"/>
<line x1="36.685" y1="12.2465" x2="19.685" y2="42.2465" stroke="#A94D4D"/>
<line x1="48.6912" y1="12.2353" x2="32.6912" y2="42.2353" stroke="#A94D4D"/>
<line x1="11.6727" y1="41.733" x2="35.6727" y2="79.733" stroke="#A94D4D"/>
<line x1="0.682713" y1="41.7495" x2="22.6827" y2="79.7495" stroke="#A94D4D"/>
<line x1="19.6778" y1="41.7411" x2="42.6777" y2="79.7411" stroke="#A94D4D"/>
<line x1="32.6778" y1="41.7411" x2="55.6777" y2="79.7411" stroke="#A94D4D"/>
<line x1="39.6778" y1="41.7411" x2="62.6777" y2="79.7411" stroke="#A94D4D"/>
<line x1="77.6724" y1="11.7325" x2="96.6724" y2="41.7325" stroke="#A94D4D"/>
<line x1="60.6718" y1="41.7316" x2="67.6718" y2="52.7316" stroke="#A94D4D"/>
<line x1="77.674" y1="34.735" x2="82.674" y2="42.735" stroke="#A94D4D"/>
<line x1="50.6685" y1="41.7264" x2="67.6685" y2="67.7264" stroke="#A94D4D"/>
<line x1="22.25" y1="79.5" x2="35.25" y2="79.5" stroke="#A94D4D"/>
<line x1="42.25" y1="79.5" x2="55.25" y2="79.5" stroke="#A94D4D"/>
<path d="M62.25 79.5C62.25 79.5 70.6757 79.5 74.25 79.5" stroke="#A94D4D"/>
<line x1="23.25" y1="0.5" x2="75.25" y2="0.499995" stroke="#A94D4D"/>
<line x1="29.25" y1="12.5" x2="36.25" y2="12.5" stroke="#A94D4D"/>
<line x1="48.25" y1="12.5" x2="55.25" y2="12.5" stroke="#A94D4D"/>
<line x1="23.6885" y1="0.240157" x2="0.688547" y2="42.2402" stroke="#A94D4D"/>
<line x1="29.6787" y1="12.2572" x2="11.6787" y2="42.2572" stroke="#A94D4D"/>
<line x1="55.6912" y1="12.2353" x2="39.6912" y2="42.2353" stroke="#A94D4D"/>
<line x1="77.6884" y1="11.2404" x2="60.6884" y2="42.2404" stroke="#A94D4D"/>
<line x1="77.6871" y1="34.2428" x2="67.6871" y2="52.2428" stroke="#A94D4D"/>
<line x1="75.6796" y1="0.255742" x2="50.6796" y2="42.2557" stroke="#A94D4D"/>
<path d="M97.1105 41.5093C96.8239 41.339 96.5374 41.1688 96.2508 40.9985C95.8783 41.6255 95.4933 42.2736 95.1131 42.9138C88.2151 54.5429 81.3065 66.1455 74.5034 77.7916C74.1021 78.4929 73.7491 79.0692 73.3693 79.8065C73.6767 79.9355 73.9841 80.0645 74.2915 80.1935C74.5681 79.668 74.9832 78.9616 75.3686 78.293C82.164 66.66 89.0762 55.0513 95.9729 43.4244C96.3531 42.7843 96.738 42.1361 97.1105 41.5093Z" fill="#A94D4D"/>
<line x1="82.6831" y1="42.2499" x2="67.6831" y2="68.2499" stroke="#A94D4D"/>
<line x1="36.685" y1="12.2465" x2="19.685" y2="42.2465" stroke="#A94D4D"/>
<line x1="48.6912" y1="12.2353" x2="32.6912" y2="42.2353" stroke="#A94D4D"/>
<line x1="11.6727" y1="41.733" x2="35.6727" y2="79.733" stroke="#A94D4D"/>
<line x1="0.682713" y1="41.7495" x2="22.6827" y2="79.7495" stroke="#A94D4D"/>
<line x1="19.6778" y1="41.7411" x2="42.6777" y2="79.7411" stroke="#A94D4D"/>
<line x1="32.6778" y1="41.7411" x2="55.6777" y2="79.7411" stroke="#A94D4D"/>
<line x1="39.6778" y1="41.7411" x2="62.6777" y2="79.7411" stroke="#A94D4D"/>
<line x1="77.6724" y1="11.7325" x2="96.6724" y2="41.7325" stroke="#A94D4D"/>
<line x1="60.6718" y1="41.7316" x2="67.6718" y2="52.7316" stroke="#A94D4D"/>
<line x1="77.674" y1="34.735" x2="82.674" y2="42.735" stroke="#A94D4D"/>
<line x1="50.6685" y1="41.7264" x2="67.6685" y2="67.7264" stroke="#A94D4D"/>
<line x1="22.25" y1="79.5" x2="35.25" y2="79.5" stroke="#A94D4D"/>
<line x1="42.25" y1="79.5" x2="55.25" y2="79.5" stroke="#A94D4D"/>
<path d="M62.25 79.5C62.25 79.5 70.6757 79.5 74.25 79.5" stroke="#A94D4D"/>
<line x1="23.25" y1="0.5" x2="75.25" y2="0.499995" stroke="#A94D4D"/>
<line x1="29.25" y1="12.5" x2="36.25" y2="12.5" stroke="#A94D4D"/>
<line x1="48.25" y1="12.5" x2="55.25" y2="12.5" stroke="#A94D4D"/>
<line x1="23.6885" y1="0.240157" x2="0.688547" y2="42.2402" stroke="#A94D4D"/>
<line x1="29.6787" y1="12.2572" x2="11.6787" y2="42.2572" stroke="#A94D4D"/>
<line x1="55.6912" y1="12.2353" x2="39.6912" y2="42.2353" stroke="#A94D4D"/>
<line x1="77.6884" y1="11.2404" x2="60.6884" y2="42.2404" stroke="#A94D4D"/>
<line x1="77.6871" y1="34.2428" x2="67.6871" y2="52.2428" stroke="#A94D4D"/>
<line x1="75.6796" y1="0.255742" x2="50.6796" y2="42.2557" stroke="#A94D4D"/>
<path d="M97.1105 41.5093C96.8239 41.339 96.5374 41.1688 96.2508 40.9985C95.8783 41.6255 95.4933 42.2736 95.1131 42.9138C88.2151 54.5429 81.3065 66.1455 74.5034 77.7916C74.1021 78.4929 73.7491 79.0692 73.3693 79.8065C73.6767 79.9355 73.9841 80.0645 74.2915 80.1935C74.5681 79.668 74.9832 78.9616 75.3686 78.293C82.164 66.66 89.0762 55.0513 95.9729 43.4244C96.3531 42.7843 96.738 42.1361 97.1105 41.5093Z" fill="#A94D4D"/>
<line x1="82.6831" y1="42.2499" x2="67.6831" y2="68.2499" stroke="#A94D4D"/>
<line x1="36.685" y1="12.2465" x2="19.685" y2="42.2465" stroke="#A94D4D"/>
<line x1="48.6912" y1="12.2353" x2="32.6912" y2="42.2353" stroke="#A94D4D"/>
<line x1="11.6727" y1="41.733" x2="35.6727" y2="79.733" stroke="#A94D4D"/>
<line x1="0.682713" y1="41.7495" x2="22.6827" y2="79.7495" stroke="#A94D4D"/>
<line x1="19.6778" y1="41.7411" x2="42.6777" y2="79.7411" stroke="#A94D4D"/>
<line x1="32.6778" y1="41.7411" x2="55.6777" y2="79.7411" stroke="#A94D4D"/>
<line x1="39.6778" y1="41.7411" x2="62.6777" y2="79.7411" stroke="#A94D4D"/>
<line x1="77.6724" y1="11.7325" x2="96.6724" y2="41.7325" stroke="#A94D4D"/>
<line x1="60.6718" y1="41.7316" x2="67.6718" y2="52.7316" stroke="#A94D4D"/>
<line x1="77.674" y1="34.735" x2="82.674" y2="42.735" stroke="#A94D4D"/>
<line x1="50.6685" y1="41.7264" x2="67.6685" y2="67.7264" stroke="#A94D4D"/>
<line x1="22" y1="79.5" x2="35" y2="79.5" stroke="#A94D4D"/>
<line x1="42" y1="79.5" x2="55" y2="79.5" stroke="#A94D4D"/>
<path d="M62 79.5C62 79.5 70.4257 79.5 74 79.5" stroke="#A94D4D"/>
<line x1="23" y1="0.5" x2="75" y2="0.499995" stroke="#A94D4D"/>
<line x1="29" y1="12.5" x2="36" y2="12.5" stroke="#A94D4D"/>
<line x1="48" y1="12.5" x2="55" y2="12.5" stroke="#A94D4D"/>
<line x1="23.4385" y1="0.240157" x2="0.438547" y2="42.2402" stroke="#A94D4D"/>
<line x1="29.4287" y1="12.2572" x2="11.4287" y2="42.2572" stroke="#A94D4D"/>
<line x1="55.4412" y1="12.2353" x2="39.4412" y2="42.2353" stroke="#A94D4D"/>
<line x1="77.4384" y1="11.2404" x2="60.4384" y2="42.2404" stroke="#A94D4D"/>
<line x1="77.4371" y1="34.2428" x2="67.4371" y2="52.2428" stroke="#A94D4D"/>
<line x1="75.4296" y1="0.255742" x2="50.4296" y2="42.2557" stroke="#A94D4D"/>
<path d="M96.8605 41.5093C96.5739 41.339 96.2874 41.1688 96.0008 40.9985C95.6283 41.6255 95.2433 42.2736 94.8631 42.9138C87.9651 54.5429 81.0565 66.1455 74.2534 77.7916C73.8521 78.4929 73.4991 79.0692 73.1193 79.8065C73.4267 79.9355 73.7341 80.0645 74.0415 80.1935C74.3181 79.668 74.7332 78.9616 75.1186 78.293C81.914 66.66 88.8262 55.0513 95.7229 43.4244C96.1031 42.7843 96.488 42.1361 96.8605 41.5093Z" fill="#A94D4D"/>
<line x1="82.4331" y1="42.2499" x2="67.4331" y2="68.2499" stroke="#A94D4D"/>
<line x1="36.435" y1="12.2465" x2="19.435" y2="42.2465" stroke="#A94D4D"/>
<line x1="48.4412" y1="12.2353" x2="32.4412" y2="42.2353" stroke="#A94D4D"/>
<line x1="11.4227" y1="41.733" x2="35.4227" y2="79.733" stroke="#A94D4D"/>
<line x1="0.432713" y1="41.7495" x2="22.4327" y2="79.7495" stroke="#A94D4D"/>
<line x1="19.4278" y1="41.7411" x2="42.4277" y2="79.7411" stroke="#A94D4D"/>
<line x1="32.4278" y1="41.7411" x2="55.4277" y2="79.7411" stroke="#A94D4D"/>
<line x1="39.4278" y1="41.7411" x2="62.4277" y2="79.7411" stroke="#A94D4D"/>
<line x1="77.4224" y1="11.7325" x2="96.4224" y2="41.7325" stroke="#A94D4D"/>
<line x1="60.4218" y1="41.7316" x2="67.4218" y2="52.7316" stroke="#A94D4D"/>
<line x1="77.424" y1="34.735" x2="82.424" y2="42.735" stroke="#A94D4D"/>
<line x1="50.4185" y1="41.7264" x2="67.4185" y2="67.7264" stroke="#A94D4D"/>
</svg>
