<svg width="24" height="24" viewBox="0 0 24 24" fill="none" xmlns="http://www.w3.org/2000/svg">
<path d="M2.70234 20.8995C2.46184 20.8995 2.25975 20.8172 2.09609 20.6527C1.93242 20.4882 1.85059 20.2851 1.85059 20.0435C1.85059 19.8018 1.93242 19.6001 2.09609 19.4385C2.25975 19.277 2.46184 19.1962 2.70234 19.1962H21.2978C21.5378 19.1962 21.7408 19.2785 21.9066 19.443C22.0726 19.6075 22.1556 19.8106 22.1556 20.0522C22.1556 20.2939 22.0726 20.4955 21.9066 20.657C21.7408 20.8186 21.5378 20.8995 21.2978 20.8995H2.70234ZM4.19709 17.6065C3.82025 17.6065 3.50167 17.4751 3.24134 17.2122C2.98084 16.9494 2.85059 16.6303 2.85059 16.255V12.2022C2.85059 11.8251 2.98209 11.5045 3.24509 11.2405C3.50809 10.9765 3.82742 10.8445 4.20309 10.8445C4.57875 10.8445 4.89784 10.9765 5.16034 11.2405C5.42267 11.5045 5.55384 11.8251 5.55384 12.2022V16.255C5.55384 16.6303 5.42192 16.9494 5.15809 17.2122C4.89442 17.4751 4.57409 17.6065 4.19709 17.6065ZM9.37909 17.6065C9.00292 17.6065 8.68409 17.4751 8.42259 17.2122C8.16125 16.9494 8.03059 16.6303 8.03059 16.255V7.20223C8.03059 6.82507 8.16225 6.50448 8.42559 6.24048C8.68892 5.97648 9.00875 5.84448 9.38509 5.84448C9.76142 5.84448 10.0803 5.97648 10.3416 6.24048C10.6031 6.50448 10.7338 6.82507 10.7338 7.20223V16.255C10.7338 16.6303 10.6021 16.9494 10.3386 17.2122C10.0753 17.4751 9.75542 17.6065 9.37909 17.6065ZM14.5841 17.6065C14.2078 17.6065 13.8889 17.4751 13.6276 17.2122C13.3661 16.9494 13.2353 16.6303 13.2353 16.255V10.2022C13.2353 9.82507 13.3673 9.50448 13.6311 9.24048C13.8949 8.97648 14.2153 8.84448 14.5921 8.84448C14.9689 8.84448 15.2886 8.97648 15.5511 9.24048C15.8134 9.50448 15.9446 9.82507 15.9446 10.2022V16.255C15.9446 16.6303 15.8123 16.9494 15.5478 17.2122C15.2833 17.4751 14.9621 17.6065 14.5841 17.6065ZM19.7951 17.6065C19.4188 17.6065 19.0998 17.4751 18.8383 17.2122C18.577 16.9494 18.4463 16.6303 18.4463 16.255V4.20223C18.4463 3.82507 18.5783 3.50448 18.8421 3.24048C19.1058 2.97648 19.4261 2.84448 19.8031 2.84448C20.1799 2.84448 20.4995 2.97648 20.7618 3.24048C21.0243 3.50448 21.1556 3.82507 21.1556 4.20223V16.255C21.1556 16.6303 21.0233 16.9494 20.7586 17.2122C20.4941 17.4751 20.1729 17.6065 19.7951 17.6065Z" fill="#060B02"/>
</svg>
