<svg width="24" height="24" viewBox="0 0 24 24" fill="none" xmlns="http://www.w3.org/2000/svg">
<path d="M9.37791 13.4762H13.5279C13.7449 13.4762 13.9282 13.4011 14.0777 13.2509C14.2272 13.1006 14.3019 12.9162 14.3019 12.6979C14.3019 12.4779 14.2272 12.2937 14.0777 12.1452C13.9282 11.9967 13.7449 11.9224 13.5279 11.9224H9.37791C9.15808 11.9224 8.97433 11.9979 8.82666 12.1489C8.679 12.2999 8.60516 12.4851 8.60516 12.7044C8.60516 12.9237 8.679 13.1072 8.82666 13.2547C8.97433 13.4023 9.15808 13.4762 9.37791 13.4762ZM9.37466 11.1724H17.8579C18.0734 11.1724 18.2559 11.0972 18.4054 10.9469C18.5547 10.7967 18.6294 10.6125 18.6294 10.3942C18.6294 10.1742 18.5547 9.98992 18.4054 9.84142C18.2559 9.69292 18.0734 9.61866 17.8579 9.61866H9.37466C9.157 9.61866 8.97433 9.69416 8.82666 9.84516C8.679 9.996 8.60516 10.1811 8.60516 10.4004C8.60516 10.6197 8.679 10.8032 8.82666 10.9509C8.97433 11.0986 9.157 11.1724 9.37466 11.1724ZM9.37466 8.86866H17.8579C18.0734 8.86866 18.2559 8.7935 18.4054 8.64316C18.5547 8.493 18.6294 8.30875 18.6294 8.09041C18.6294 7.87041 18.5547 7.68616 18.4054 7.53766C18.2559 7.38916 18.0734 7.31492 17.8579 7.31492H9.37466C9.157 7.31492 8.97433 7.39033 8.82666 7.54117C8.679 7.69217 8.60516 7.87733 8.60516 8.09666C8.60516 8.316 8.679 8.4995 8.82666 8.64716C8.97433 8.79483 9.157 8.86866 9.37466 8.86866ZM6.65566 19.0479C6.19566 19.0479 5.79675 18.8791 5.45891 18.5414C5.12125 18.2036 4.95241 17.8047 4.95241 17.3447V3.45242C4.95241 2.99075 5.12125 2.59041 5.45891 2.25141C5.79675 1.91258 6.19566 1.74316 6.65566 1.74316H20.5479C21.0096 1.74316 21.4099 1.91258 21.7489 2.25141C22.0877 2.59041 22.2572 2.99075 22.2572 3.45242V17.3447C22.2572 17.8047 22.0877 18.2036 21.7489 18.5414C21.4099 18.8791 21.0096 19.0479 20.5479 19.0479H6.65566ZM6.65566 17.3447H20.5479V3.45242H6.65566V17.3447ZM3.45241 22.2572C2.99075 22.2572 2.59041 22.0877 2.25141 21.7489C1.91258 21.4099 1.74316 21.0096 1.74316 20.5479V5.80392C1.74316 5.56358 1.82541 5.36158 1.98991 5.19791C2.15441 5.03425 2.3585 4.95242 2.60216 4.95242C2.84583 4.95242 3.04841 5.03425 3.20991 5.19791C3.37158 5.36158 3.45241 5.56358 3.45241 5.80392V20.5479H18.1964C18.4367 20.5479 18.6387 20.6302 18.8024 20.7947C18.9661 20.9593 19.0479 21.1634 19.0479 21.4069C19.0479 21.6506 18.9661 21.8532 18.8024 22.0149C18.6387 22.1764 18.4367 22.2572 18.1964 22.2572H3.45241Z" fill="#060B02"/>
</svg>
