<svg width="24" height="24" viewBox="0 0 24 24" fill="none" xmlns="http://www.w3.org/2000/svg">
<path d="M9.97784 20.1495C9.36184 20.1495 8.84109 19.9322 8.41559 19.4977C7.99009 19.0634 7.77734 18.538 7.77734 17.9215C7.77734 17.305 7.99034 16.7844 8.41634 16.3597C8.84234 15.9351 9.36192 15.7227 9.97509 15.7227H19.9488C20.5648 15.7227 21.0866 15.9358 21.5141 16.362C21.9418 16.788 22.1556 17.3069 22.1556 17.9187C22.1556 18.5371 21.942 19.0634 21.5148 19.4977C21.0875 19.9322 20.5665 20.1495 19.9518 20.1495H9.97784ZM10.0028 14.2227C9.38884 14.2227 8.86442 14.0042 8.42959 13.5672C7.99475 13.1301 7.77734 12.6046 7.77734 11.9907C7.77734 11.3769 7.995 10.8536 8.43034 10.4207C8.8655 9.98773 9.38875 9.77123 10.0001 9.77123H19.9238C20.538 9.77123 21.0635 9.98915 21.5003 10.425C21.9372 10.8608 22.1556 11.3848 22.1556 11.997C22.1556 12.6108 21.9373 13.1352 21.5008 13.5702C21.0643 14.0052 20.5397 14.2227 19.9268 14.2227H10.0028ZM9.97784 8.27123C9.36184 8.27123 8.84109 8.05256 8.41559 7.61523C7.99009 7.17806 7.77734 6.65415 7.77734 6.04348C7.77734 5.43265 7.99034 4.91348 8.41634 4.48598C8.84234 4.05832 9.36192 3.84448 9.97509 3.84448H19.9488C20.5648 3.84448 21.0866 4.05806 21.5141 4.48523C21.9418 4.91256 22.1556 5.43298 22.1556 6.04648C22.1556 6.65515 21.942 7.17806 21.5148 7.61523C21.0875 8.05256 20.5665 8.27123 19.9518 8.27123H9.97784ZM4.07834 8.27123C3.46767 8.27123 2.94367 8.05256 2.50634 7.61523C2.06917 7.17806 1.85059 6.65415 1.85059 6.04348C1.85059 5.43265 2.069 4.91348 2.50584 4.48598C2.94284 4.05832 3.468 3.84448 4.08134 3.84448C4.69017 3.84448 5.20834 4.05806 5.63584 4.48523C6.0635 4.91256 6.27734 5.43298 6.27734 6.04648C6.27734 6.65515 6.0635 7.17806 5.63584 7.61523C5.20834 8.05256 4.68917 8.27123 4.07834 8.27123ZM4.07734 14.2227C3.459 14.2227 2.93334 14.0042 2.50034 13.5672C2.06717 13.1301 1.85059 12.6046 1.85059 11.9907C1.85059 11.3769 2.06784 10.8536 2.50234 10.4207C2.93667 9.98773 3.46209 9.77123 4.07859 9.77123C4.69509 9.77123 5.21984 9.98915 5.65284 10.425C6.08584 10.8608 6.30234 11.3848 6.30234 11.997C6.30234 12.6108 6.0845 13.1352 5.64884 13.5702C5.213 14.0052 4.68917 14.2227 4.07734 14.2227ZM4.08134 20.1495C3.463 20.1495 2.93667 19.9322 2.50234 19.4977C2.06784 19.0634 1.85059 18.538 1.85059 17.9215C1.85059 17.305 2.06784 16.7844 2.50234 16.3597C2.93667 15.9351 3.46209 15.7227 4.07859 15.7227C4.69509 15.7227 5.21567 15.9358 5.64034 16.362C6.065 16.788 6.27734 17.3069 6.27734 17.9187C6.27734 18.5371 6.06425 19.0634 5.63809 19.4977C5.21209 19.9322 4.69317 20.1495 4.08134 20.1495Z" fill="#060B02"/>
</svg>
