<svg width="24" height="24" viewBox="0 0 24 24" fill="none" xmlns="http://www.w3.org/2000/svg">
<path d="M4.55384 21.1495C4.09384 21.1495 3.695 20.9806 3.35734 20.6427C3.0195 20.3051 2.85059 19.9062 2.85059 19.4462V4.55373C2.85059 4.09207 3.0195 3.69181 3.35734 3.35298C3.695 3.01398 4.09384 2.84448 4.55384 2.84448H11.1593C11.3997 2.84448 11.6017 2.9279 11.7653 3.09473C11.929 3.26173 12.0108 3.46582 12.0108 3.70698C12.0108 3.94832 11.929 4.14982 11.7653 4.31148C11.6017 4.47298 11.3997 4.55373 11.1593 4.55373H4.55384V19.4462H11.1593C11.3997 19.4462 11.6017 19.5285 11.7653 19.693C11.929 19.8575 12.0108 20.0606 12.0108 20.3022C12.0108 20.5439 11.929 20.7455 11.7653 20.907C11.6017 21.0686 11.3997 21.1495 11.1593 21.1495H4.55384ZM17.8918 12.8517H9.81584C9.5755 12.8517 9.3735 12.7694 9.20984 12.6047C9.04617 12.4402 8.96434 12.2371 8.96434 11.9955C8.96434 11.754 9.04617 11.5524 9.20984 11.3907C9.3735 11.2291 9.5755 11.1482 9.81584 11.1482H17.8418L15.9186 9.22498C15.7486 9.05415 15.6678 8.85406 15.6761 8.62473C15.6844 8.39523 15.7736 8.19648 15.9436 8.02848C16.1134 7.85665 16.3158 7.77173 16.5508 7.77373C16.7857 7.77573 16.9894 7.86165 17.1621 8.03148L20.5588 11.4282C20.7247 11.5996 20.8076 11.7988 20.8076 12.026C20.8076 12.2531 20.7247 12.4517 20.5588 12.6217L17.1871 15.9935C17.0204 16.1633 16.8223 16.2451 16.5928 16.2387C16.3632 16.2324 16.1602 16.1443 15.9838 15.9745C15.8203 15.8045 15.7375 15.6016 15.7353 15.366C15.7332 15.1301 15.8193 14.9268 15.9936 14.756L17.8918 12.8517Z" fill="#060B02"/>
</svg>
