<svg width="577" height="866" viewBox="0 0 577 866" fill="none" xmlns="http://www.w3.org/2000/svg">
<path d="M232.972 0.275937C241.072 -0.110063 250.612 0.100935 258.816 0.098935L305.896 0.121434L338.258 0.0574311C359.692 -0.0180689 378.698 -1.63707 391.962 19.1204C400.28 32.1374 398.542 46.7449 398.536 61.3794L398.473 105.924L398.467 150.549C398.492 157.958 399.113 176.975 397.467 183.102C393.257 198.779 385.856 209.011 370.04 214.543C360.632 217.833 349.395 216.659 339.461 216.801C313.376 217.073 287.289 217.101 261.204 216.884C250.245 216.851 237.567 215.946 226.9 216.955C215.374 218.045 201.018 225.707 194.849 235.405C184.946 250.973 187.058 267.556 187.361 284.97C187.553 296.01 187.356 307.135 187.323 318.138L187.327 361.643C187.275 377.413 185.642 398.534 193.743 412.844C197.866 420.127 208.038 429.305 216.08 431.541C230.513 435.556 248.021 434.116 263.13 434.076L310.151 433.921C318.979 433.941 327.724 433.551 336.38 435.341C353.242 438.341 365.873 454.856 367.27 471.561C368.447 485.636 367.846 501.941 367.858 516.326C367.954 529.616 367.884 542.911 367.648 556.201C367.416 581.036 369.758 598.636 344.67 613.146C340.606 615.191 335.474 616.316 330.915 616.466C298.113 617.571 265.21 616.821 232.389 616.946C228.754 616.961 225.877 616.331 222.277 615.921C208.971 614.401 194.195 598.481 191.406 586.016C189.209 576.201 190.31 558.866 190.357 548.686L190.435 500.381C190.438 481.916 193.328 461.571 182.544 446.166C169.931 428.154 153.29 427.224 133.529 427.157L109.777 427.116L55.1 427.057C49.2535 427.088 41.437 428.018 36.0285 427.06C28.6085 425.476 19.8175 421.166 14.2515 416.013C-2.307 400.683 -0.0135067 377.382 0.254993 357.071C0.385493 345.988 0.420992 334.904 0.360992 323.821L0.318493 287.766C0.299993 269.279 -0.959005 252.41 12.218 237.403C26.966 220.606 46.856 224.431 66.6665 224.178C92.2645 223.852 117.855 224.667 143.451 224.034C148.932 223.903 155.012 223.178 160.258 221.509C169.494 218.117 180.682 209.601 185.077 200.651C192.313 185.914 190.424 166.38 190.419 150.261L190.399 74.1989C190.392 69.4619 190.429 64.4594 190.376 59.8894C190.139 39.4754 188.55 19.4629 208.201 6.95193C217.017 1.33993 222.73 0.662937 232.972 0.275937Z" fill="#FF3600"/>
<path d="M312.44 244.304C328.891 244.206 342.628 241.992 356.03 254.285C360.675 258.545 365.799 269.07 366.672 275.208C368.107 285.292 367.719 298.408 367.688 308.821C367.623 330.78 367.459 352.2 367.598 374.193C367.702 390.591 372.102 401.657 381.433 415.024C387.274 423.391 400.846 434.546 410.363 437.946C427.274 443.991 451.628 442.636 469.823 442.606L514.533 442.541C536.868 442.516 559.573 440.696 571.178 464.881C575.488 473.856 576.438 481.956 576.398 491.796C576.268 523.521 576.233 555.266 576.413 586.996C576.453 595.641 576.853 604.686 575.038 613.176C573.313 621.116 569.408 628.411 563.758 634.251C548.688 649.571 537.663 646.076 518.423 646.861C488.618 648.081 458.078 644.966 428.546 648.551C421.005 649.471 414.16 653.606 409.13 659.026C398.037 669.851 398.265 680.321 397.75 694.681C397.294 707.381 397.39 720.201 397.384 733.021C397.194 760.896 397.214 788.781 397.442 816.656C397.792 845.096 381.544 866.091 351.121 864.636C345.879 864.381 337.701 864.946 332.254 865.056C306.325 865.571 280.427 865.121 254.502 865.291C234.852 865.216 208.88 868.456 193.697 853.606C176.073 836.366 180.237 813.881 180.331 791.136L180.318 735.526L180.307 705.846C180.306 689.941 180.232 674.421 191.942 661.441C195.799 657.166 207.735 649.856 213.727 649.096C227.233 647.381 242.167 648.016 255.894 648.011L347.168 648.171C361.402 648.121 373.887 646.336 384.691 636.056C400.756 620.771 397.481 600.356 397.917 580.371C398.049 574.306 397.92 568.041 397.91 561.921C397.872 536.931 397.931 511.921 397.783 486.931C397.511 466.261 394.853 451.051 381.183 435.001C360.104 410.257 341.251 410.438 311.322 410.479L267.188 410.562C250.254 410.597 231.44 413.265 218.631 399.698C211.682 392.338 206.685 381.752 206.71 371.498C206.756 352.883 206.756 334.279 206.829 315.666C207.516 301.053 205.386 284.849 208.552 270.577C210.447 262.036 223.148 248.039 231.843 246.029C242.258 243.621 255.511 244.371 266.278 244.358L312.44 244.304Z" fill="#FF3600"/>
</svg>
