<svg width="24" height="24" viewBox="0 0 24 24" fill="none" xmlns="http://www.w3.org/2000/svg">
<path d="M15.0501 16.0248H18.3251C18.5376 16.0248 18.7158 15.9529 18.8596 15.809C19.0033 15.6654 19.0751 15.4873 19.0751 15.2748V8.72478C19.0751 8.51228 19.0033 8.33411 18.8596 8.19028C18.7158 8.04661 18.5376 7.97478 18.3251 7.97478H15.0501C14.8376 7.97478 14.6595 8.04661 14.5159 8.19028C14.372 8.33411 14.3001 8.51228 14.3001 8.72478V15.2748C14.3001 15.4873 14.372 15.6654 14.5159 15.809C14.6595 15.9529 14.8376 16.0248 15.0501 16.0248ZM15.8001 14.5248V9.47478H17.5751V14.5248H15.8001ZM8.85013 16.0248H12.0001C12.2126 16.0248 12.3908 15.9529 12.5346 15.809C12.6783 15.6654 12.7501 15.4873 12.7501 15.2748V8.72478C12.7501 8.51228 12.6783 8.33411 12.5346 8.19028C12.3908 8.04661 12.2126 7.97478 12.0001 7.97478H8.85013C8.63763 7.97478 8.45954 8.04661 8.31588 8.19028C8.17204 8.33411 8.10013 8.51228 8.10013 8.72478V15.2748C8.10013 15.4873 8.17204 15.6654 8.31588 15.809C8.45954 15.9529 8.63763 16.0248 8.85013 16.0248ZM9.60013 14.5248V9.47478H11.2501V14.5248H9.60013ZM6.42513 15.2748V8.72478C6.42513 8.51228 6.35279 8.33411 6.20813 8.19028C6.06363 8.04661 5.88446 7.97478 5.67063 7.97478C5.45696 7.97478 5.27929 8.04661 5.13763 8.19028C4.99596 8.33411 4.92512 8.51228 4.92512 8.72478V15.2748C4.92512 15.4873 4.99746 15.6654 5.14212 15.809C5.28662 15.9529 5.46579 16.0248 5.67963 16.0248C5.89329 16.0248 6.07096 15.9529 6.21263 15.809C6.35429 15.6654 6.42513 15.4873 6.42513 15.2748ZM1.79688 18.4998V5.49978C1.79688 5.02561 1.96262 4.62219 2.29412 4.28953C2.62563 3.95686 3.02762 3.79053 3.50012 3.79053H20.5001C20.9743 3.79053 21.3777 3.95686 21.7104 4.28953C22.043 4.62219 22.2094 5.02561 22.2094 5.49978V18.4998C22.2094 18.9723 22.043 19.3743 21.7104 19.7058C21.3777 20.0373 20.9743 20.203 20.5001 20.203H3.50012C3.02762 20.203 2.62563 20.0373 2.29412 19.7058C1.96262 19.3743 1.79687 18.9723 1.79688 18.4998ZM3.50012 18.4998H20.5001V5.49978H3.50012V18.4998Z" fill="#060B02"/>
</svg>
