<svg width="24" height="24" viewBox="0 0 24 24" fill="none" xmlns="http://www.w3.org/2000/svg">
<path d="M11.999 13.9229C13.0092 13.9229 14.0076 14.0477 14.9951 14.2979C15.8677 14.5189 16.779 14.8269 17.7285 15.2227L18.1377 15.3975C18.605 15.6053 18.9719 15.9062 19.249 16.3018V16.3008C19.5134 16.6783 19.6552 17.1421 19.6553 17.7158V18.5244C19.6553 18.8592 19.5425 19.1335 19.3027 19.374C19.0645 19.6129 18.7885 19.7275 18.4463 19.7275H5.55371C5.21376 19.7275 4.93928 19.6137 4.70215 19.375C4.46327 19.1345 4.35059 18.8598 4.35059 18.5244V17.7158C4.35064 17.1454 4.49342 16.6821 4.75879 16.3027C5.04025 15.9001 5.39983 15.5959 5.8457 15.3867C6.94406 14.895 7.99428 14.5294 8.99512 14.2861C9.99378 14.0434 10.9952 13.9229 11.999 13.9229ZM11.9971 14.6318C11.0198 14.6318 10.0665 14.7289 9.1377 14.9238C8.19445 15.1218 7.19336 15.484 6.13672 16.002H6.13574C5.81061 16.1618 5.55074 16.4068 5.35547 16.7188H5.35449C5.15849 17.0322 5.05371 17.3756 5.05371 17.7402V19.0244H18.9463V17.7402C18.9463 17.4158 18.8598 17.1098 18.6992 16.8281L18.626 16.709C18.4241 16.4034 18.1635 16.1624 17.8428 16.0039L17.8379 16.001L17.4375 15.8145C16.5127 15.3962 15.646 15.098 14.8398 14.9248C13.9299 14.7293 12.982 14.6318 11.9971 14.6318ZM11.999 4.59863C13.0272 4.59867 13.8317 4.92124 14.457 5.54492H14.458C15.0828 6.16805 15.4052 6.97149 15.4053 7.99902C15.4053 9.02689 15.0829 9.83061 14.458 10.4531C13.8327 11.076 13.0274 11.3974 11.999 11.3975C10.9705 11.3975 10.1671 11.0753 9.54492 10.4531C8.92267 9.83076 8.60059 9.02739 8.60059 7.99902C8.60066 7.03508 8.88347 6.26849 9.43164 5.66309L9.54492 5.54395C10.1672 4.92084 10.9707 4.59863 11.999 4.59863ZM12.001 5.30176C11.2461 5.30184 10.5903 5.55307 10.0732 6.06836V6.06934C9.55621 6.58522 9.30377 7.24022 9.30371 7.99512C9.30371 8.75119 9.55512 9.40783 10.0713 9.9248C10.5875 10.442 11.2435 10.6943 11.999 10.6943C12.6596 10.6943 13.2444 10.5021 13.7266 10.1084L13.9268 9.92676C14.4439 9.41023 14.6963 8.75378 14.6963 7.99805C14.6962 7.24144 14.4446 6.58444 13.9277 6.06836H13.9268C13.4106 5.55332 12.7555 5.30176 12.001 5.30176Z" fill="#060B02" stroke="#060B02"/>
</svg>
