<svg width="24" height="24" viewBox="0 0 24 24" fill="none" xmlns="http://www.w3.org/2000/svg">
<path d="M1.79688 18.3984V10.6432C1.79688 10.4089 1.84354 10.1855 1.93687 9.9732C2.03021 9.7607 2.15346 9.57587 2.30663 9.4187L6.66913 5.0562C6.84046 4.8862 7.02954 4.76395 7.23638 4.68945C7.44338 4.61478 7.65229 4.57745 7.86312 4.57745C8.07396 4.57745 8.28271 4.61478 8.48938 4.68945C8.69621 4.76395 8.88513 4.8862 9.05613 5.0562L13.4186 9.4187C13.5758 9.57587 13.701 9.76045 13.7944 9.97245C13.8877 10.1843 13.9344 10.4079 13.9344 10.6432V18.3984C13.9344 18.8726 13.768 19.276 13.4354 19.6087C13.1027 19.9414 12.6993 20.1077 12.2251 20.1077H3.50012C3.02762 20.1077 2.62563 19.9414 2.29412 19.6087C1.96262 19.276 1.79687 18.8726 1.79688 18.3984ZM3.43437 18.4702H7.04688V16.2859C7.04688 16.0521 7.12613 15.8577 7.28463 15.7027C7.44313 15.5477 7.63829 15.4702 7.87012 15.4702C8.10179 15.4702 8.29538 15.5477 8.45088 15.7027C8.60654 15.8577 8.68438 16.0521 8.68438 16.2859V18.4702H12.2969V10.6132L7.86263 6.18495L3.43437 10.6132V18.4702ZM16.4344 19.2919V9.10895L12.6116 5.2867C12.325 5.00003 12.2571 4.67612 12.4081 4.31495C12.5591 3.95362 12.8385 3.77295 13.2461 3.77295C13.367 3.77295 13.4814 3.79578 13.5894 3.84145C13.6972 3.88712 13.7969 3.95562 13.8884 4.04695L17.5561 7.70895C17.7093 7.86612 17.8325 8.05087 17.9259 8.2632C18.0192 8.4757 18.0659 8.69912 18.0659 8.93345V19.2919C18.0659 19.5231 17.9874 19.7169 17.8304 19.8732C17.6735 20.0295 17.479 20.1077 17.2469 20.1077C17.0149 20.1077 16.8215 20.0295 16.6666 19.8732C16.5118 19.7169 16.4344 19.5231 16.4344 19.2919ZM20.5659 19.2859V7.3997L18.4589 5.2867C18.1682 5.00003 18.0985 4.67612 18.2499 4.31495C18.4014 3.95362 18.6808 3.77295 19.0881 3.77295C19.2045 3.77295 19.3176 3.79578 19.4276 3.84145C19.5376 3.88712 19.6362 3.95362 19.7234 4.04095L21.6936 6.0052C21.8456 6.15703 21.9696 6.34053 22.0656 6.5557C22.1615 6.7707 22.2094 6.99528 22.2094 7.22945V19.2919C22.2094 19.5259 22.1301 19.7205 21.9716 19.8755C21.813 20.0303 21.6165 20.1077 21.3821 20.1077C21.1491 20.1077 20.9549 20.0289 20.7994 19.8712C20.6437 19.7135 20.5659 19.5184 20.5659 19.2859ZM7.86138 12.8577C7.62954 12.8577 7.43587 12.7785 7.28038 12.62C7.12471 12.4615 7.04688 12.2654 7.04688 12.0317C7.04688 11.798 7.12613 11.6044 7.28463 11.4507C7.44313 11.297 7.63829 11.2202 7.87012 11.2202C8.10179 11.2202 8.29538 11.2981 8.45088 11.4539C8.60654 11.6098 8.68438 11.8053 8.68438 12.0405C8.68438 12.2741 8.60546 12.4688 8.44763 12.6244C8.28996 12.78 8.09454 12.8577 7.86138 12.8577Z" fill="#060B02"/>
</svg>
