<svg width="24" height="24" viewBox="0 0 24 24" fill="none" xmlns="http://www.w3.org/2000/svg">
<path d="M2.85059 21.7043V2.31953C2.85059 2.2202 2.89309 2.15287 2.97809 2.11753C3.06309 2.08237 3.14292 2.10212 3.21759 2.17678L4.06959 3.02278C4.15492 3.11812 4.25809 3.16478 4.37909 3.16278C4.49992 3.16078 4.606 3.11412 4.69734 3.02278L5.58759 2.12678C5.67275 2.03145 5.77484 1.98378 5.89384 1.98378C6.01284 1.98378 6.12 2.02945 6.21534 2.12078L7.11159 3.02278C7.19675 3.11412 7.29884 3.15978 7.41784 3.15978C7.53684 3.15978 7.642 3.11412 7.73334 3.02278L8.64134 2.11478C8.72667 2.02345 8.82884 1.97778 8.94784 1.97778C9.06667 1.97778 9.17175 2.02345 9.26309 2.11478L10.1653 3.02278C10.2505 3.11412 10.3526 3.15878 10.4716 3.15678C10.5906 3.15478 10.6958 3.10812 10.7871 3.01678L11.6893 2.12078C11.7745 2.02945 11.8766 1.98278 11.9956 1.98078C12.1146 1.97878 12.2197 2.02345 12.3108 2.11478L13.2191 3.02278C13.3004 3.11412 13.4015 3.15978 13.5223 3.15978C13.6433 3.15978 13.7495 3.11412 13.8408 3.02278L14.7431 2.11478C14.8283 2.02345 14.9303 1.97778 15.0493 1.97778C15.1683 1.97778 15.2735 2.02345 15.3648 2.11478L16.2728 3.02278C16.3542 3.11412 16.4553 3.15978 16.5763 3.15978C16.6972 3.15978 16.8033 3.11412 16.8946 3.02278L17.8028 2.11478C17.888 2.02345 17.9901 1.97778 18.1091 1.97778C18.2281 1.97778 18.3333 2.02345 18.4246 2.11478L19.3268 3.01678C19.412 3.10812 19.5141 3.15378 19.6331 3.15378C19.7521 3.15378 19.8572 3.10812 19.9483 3.01678L20.7826 2.17678C20.8573 2.10212 20.9381 2.08237 21.0251 2.11753C21.1121 2.15287 21.1556 2.2202 21.1556 2.31953V21.7043C21.1556 21.8038 21.1121 21.8712 21.0251 21.9065C20.9381 21.9417 20.8573 21.922 20.7826 21.8473L19.9483 21.007C19.8632 20.9157 19.7611 20.87 19.6421 20.87C19.5231 20.87 19.418 20.9157 19.3268 21.007L18.4246 21.9093C18.3393 22.0006 18.2372 22.0463 18.1183 22.0463C17.9993 22.0463 17.8942 22.0006 17.8028 21.9093L16.8946 21.007C16.8094 20.9157 16.7063 20.87 16.5853 20.87C16.4643 20.87 16.3602 20.9157 16.2728 21.007L15.3648 21.9093C15.2795 22.0006 15.1773 22.0463 15.0583 22.0463C14.9395 22.0463 14.8344 22.0006 14.7431 21.9093L13.8408 21.007C13.7557 20.9157 13.6526 20.87 13.5316 20.87C13.4106 20.87 13.3064 20.9157 13.2191 21.007L12.3108 21.9093C12.2257 22.0006 12.1236 22.0463 12.0046 22.0463C11.8856 22.0463 11.7805 22.0006 11.6893 21.9093L10.7871 21.007C10.7018 20.9157 10.5987 20.87 10.4778 20.87C10.3568 20.87 10.2527 20.9157 10.1653 21.007L9.25709 21.9093C9.17192 22.0006 9.06984 22.0463 8.95084 22.0463C8.83184 22.0463 8.72667 22.0006 8.63534 21.9093L7.73334 21.007C7.648 20.9157 7.54484 20.87 7.42384 20.87C7.303 20.87 7.19892 20.9157 7.11159 21.007L6.19734 21.9093C6.11217 22.0006 6.01009 22.0463 5.89109 22.0463C5.77209 22.0463 5.66692 22.0006 5.57559 21.9093L4.67934 21.007C4.59017 20.9157 4.48609 20.87 4.36709 20.87C4.24809 20.87 4.143 20.9157 4.05184 21.007L3.21759 21.8473C3.14292 21.922 3.06309 21.9417 2.97809 21.9065C2.89309 21.8712 2.85059 21.8038 2.85059 21.7043ZM6.76484 16.6358H17.3353C17.5558 16.6358 17.7419 16.5605 17.8936 16.41C18.0454 16.2595 18.1213 16.0714 18.1213 15.8455C18.1213 15.6199 18.0464 15.4332 17.8966 15.2855C17.7469 15.138 17.5598 15.0643 17.3353 15.0643H6.76484C6.54434 15.0643 6.35825 15.1395 6.20659 15.29C6.05475 15.4405 5.97884 15.6287 5.97884 15.8545C5.97884 16.0802 6.05375 16.2669 6.20359 16.4145C6.35325 16.562 6.54034 16.6358 6.76484 16.6358ZM6.76484 12.7858H17.3353C17.5558 12.7858 17.7419 12.7105 17.8936 12.56C18.0454 12.4095 18.1213 12.2214 18.1213 11.9955C18.1213 11.7699 18.0464 11.5832 17.8966 11.4355C17.7469 11.288 17.5598 11.2143 17.3353 11.2143H6.76484C6.54434 11.2143 6.35825 11.2895 6.20659 11.44C6.05475 11.5905 5.97884 11.7787 5.97884 12.0045C5.97884 12.2302 6.05375 12.4169 6.20359 12.5645C6.35325 12.712 6.54034 12.7858 6.76484 12.7858ZM6.76484 8.91078H17.3353C17.5558 8.91078 17.7419 8.83553 17.8936 8.68503C18.0454 8.53453 18.1213 8.34637 18.1213 8.12053C18.1213 7.89487 18.0464 7.7082 17.8966 7.56053C17.7469 7.41303 17.5598 7.33928 17.3353 7.33928H6.76484C6.54434 7.33928 6.35825 7.41453 6.20659 7.56503C6.05475 7.71553 5.97884 7.9037 5.97884 8.12953C5.97884 8.3552 6.05375 8.54187 6.20359 8.68953C6.35325 8.83703 6.54034 8.91078 6.76484 8.91078ZM4.55384 19.4023H19.4463V4.59778H4.55384V19.4023Z" fill="#060B02"/>
</svg>
