<svg width="24" height="24" viewBox="0 0 24 24" fill="none" xmlns="http://www.w3.org/2000/svg">
<path d="M7.16997 22.0406C6.67347 22.0406 6.25022 21.8638 5.90022 21.5103C5.55022 21.1568 5.37522 20.7318 5.37522 20.2353C5.37522 19.7388 5.55197 19.3156 5.90547 18.9656C6.25897 18.6156 6.68397 18.4406 7.18047 18.4406C7.67697 18.4406 8.10022 18.6173 8.45022 18.9708C8.80022 19.3245 8.97522 19.7495 8.97522 20.2458C8.97522 20.7423 8.79847 21.1656 8.44497 21.5156C8.09147 21.8656 7.66647 22.0406 7.16997 22.0406ZM17.17 22.0406C16.6735 22.0406 16.2502 21.8638 15.9002 21.5103C15.5502 21.1568 15.3752 20.7318 15.3752 20.2353C15.3752 19.7388 15.552 19.3156 15.9055 18.9656C16.259 18.6156 16.684 18.4406 17.1805 18.4406C17.677 18.4406 18.1002 18.6173 18.4502 18.9708C18.8002 19.3245 18.9752 19.7495 18.9752 20.2458C18.9752 20.7423 18.7985 21.1656 18.445 21.5156C18.0915 21.8656 17.6665 22.0406 17.17 22.0406ZM5.98872 5.54058L8.63722 11.0373H15.8192L18.8247 5.54058H5.98872ZM5.16697 3.90908H19.7205C20.156 3.90908 20.4873 4.106 20.7145 4.49983C20.9416 4.89367 20.9432 5.2895 20.7192 5.68733L17.446 11.5891C17.2546 11.9136 17.0087 12.1757 16.7082 12.3753C16.4079 12.575 16.0752 12.6748 15.7102 12.6748H8.17797L6.81972 15.2091H18.2252C18.4564 15.2091 18.6501 15.2876 18.8065 15.4446C18.9628 15.6014 19.041 15.7959 19.041 16.0281C19.041 16.2601 18.9628 16.4535 18.8065 16.6083C18.6501 16.7632 18.4564 16.8406 18.2252 16.8406H6.92522C6.19339 16.8406 5.66731 16.5953 5.34697 16.1048C5.02664 15.6142 5.03281 15.0672 5.36547 14.4641L6.94747 11.5498L3.18347 3.56558H2.02522C1.79406 3.56558 1.60031 3.48708 1.44397 3.33008C1.28764 3.17325 1.20947 2.97875 1.20947 2.74658C1.20947 2.51458 1.28764 2.32116 1.44397 2.16633C1.60031 2.0115 1.79406 1.93408 2.02522 1.93408H3.70122C3.87122 1.93408 4.02539 1.97583 4.16372 2.05933C4.30206 2.14267 4.40281 2.2605 4.46597 2.41283L5.16697 3.90908Z" fill="#060B02"/>
</svg>
