<svg width="24" height="24" viewBox="0 0 24 24" fill="none" xmlns="http://www.w3.org/2000/svg">
<path d="M11.9986 22.275C10.5804 22.275 9.24626 22.0061 7.9961 21.4683C6.74576 20.9304 5.65751 20.199 4.73135 19.274C3.80501 18.349 3.07243 17.2608 2.5336 16.0093C1.9946 14.7578 1.7251 13.4228 1.7251 12.0045C1.7251 10.5833 1.9946 9.24826 2.5336 7.99926C3.07243 6.75009 3.80451 5.66151 4.72985 4.73351C5.65518 3.80551 6.74376 3.07209 7.9956 2.53326C9.24727 1.99442 10.5824 1.72501 12.0011 1.72501C13.4196 1.72501 14.7545 1.99442 16.0058 2.53326C17.2573 3.07209 18.3456 3.80551 19.2706 4.73351C20.1958 5.66151 20.9278 6.75051 21.4666 8.00051C22.0056 9.25051 22.2751 10.5861 22.2751 12.0073C22.2751 13.4256 22.0058 14.7598 21.4674 16.01C20.9289 17.2603 20.1964 18.3486 19.2701 19.2748C18.3438 20.2011 17.2548 20.9327 16.0033 21.4695C14.7518 22.0065 13.4169 22.275 11.9986 22.275ZM12.0016 20.6375C14.4094 20.6375 16.4507 19.8008 18.1253 18.1273C19.8002 16.4538 20.6376 14.4133 20.6376 12.006C20.6376 9.59317 19.7997 7.54942 18.1238 5.87476C16.4482 4.19992 14.4064 3.36251 11.9986 3.36251C9.59076 3.36251 7.54951 4.19992 5.87485 5.87476C4.20001 7.54942 3.3626 9.59217 3.3626 12.003C3.3626 14.4138 4.20051 16.4556 5.87635 18.1283C7.55201 19.8011 9.59376 20.6375 12.0016 20.6375ZM12.0008 18.2093C10.2738 18.2093 8.8081 17.6063 7.6036 16.4003C6.3991 15.1941 5.79685 13.729 5.79685 12.005C5.79685 10.2808 6.39885 8.81509 7.60285 7.60776C8.80701 6.40042 10.2725 5.79676 11.9993 5.79676C13.7263 5.79676 15.1931 6.40017 16.3996 7.60701C17.6061 8.81384 18.2093 10.2793 18.2093 12.0035C18.2093 13.7277 17.6063 15.193 16.4003 16.3995C15.1942 17.606 13.7277 18.2093 12.0008 18.2093ZM11.9993 16.5718C13.2698 16.5718 14.3485 16.1285 15.2353 15.242C16.1223 14.3557 16.5658 13.2773 16.5658 12.0068C16.5658 10.7363 16.1226 9.65659 15.2361 8.76776C14.3498 7.87876 13.2713 7.43426 12.0008 7.43426C10.7303 7.43426 9.65168 7.87876 8.76485 8.76776C7.87785 9.65659 7.43435 10.7363 7.43435 12.0068C7.43435 13.2773 7.8776 14.3557 8.7641 15.242C9.65043 16.1285 10.7288 16.5718 11.9993 16.5718ZM11.9978 14.1375C11.4095 14.1375 10.9065 13.9293 10.4888 13.5128C10.0713 13.0964 9.8626 12.594 9.8626 12.0055C9.8626 11.4172 10.0721 10.9129 10.4911 10.4928C10.9101 10.0726 11.4138 9.86251 12.0023 9.86251C12.5907 9.86251 13.0937 10.0724 13.5113 10.4923C13.9288 10.9121 14.1376 11.4168 14.1376 12.0065C14.1376 12.596 13.9281 13.0986 13.5091 13.5143C13.0901 13.9298 12.5863 14.1375 11.9978 14.1375Z" fill="#060B02"/>
</svg>
